# Blender v2.80 (sub 75) OBJ File: 'sub1.blend'
# www.blender.org
mtllib subCollider.mtl
o colliderTorus_Cylinder.001
v -3.853974 -0.000000 -1.707665
v -4.976109 0.000000 -1.707665
v -3.853974 1.624086 -0.527697
v -4.976109 1.624086 -0.527697
v -3.853974 1.003740 1.381530
v -4.976109 1.003740 1.381530
v -3.853974 -1.003740 1.381530
v -4.976110 -1.003740 1.381530
v -3.853974 -1.624086 -0.527698
v -4.976110 -1.624086 -0.527698
vt 1.000000 1.000000
vt 0.800000 0.500000
vt 1.000000 0.500000
vt 0.800000 1.000000
vt 0.600000 0.500000
vt 0.600000 1.000000
vt 0.400000 0.500000
vt 0.021746 0.324164
vt 0.108932 0.055836
vt 0.391068 0.055836
vt 0.400000 1.000000
vt 0.200000 0.500000
vt 0.200000 1.000000
vt 0.000000 0.500000
vt 0.978254 0.324164
vt 0.608932 0.055836
vt 0.521746 0.324164
vt 0.478254 0.324164
vt 0.250000 0.490000
vt 0.000000 1.000000
vt 0.750000 0.490000
vt 0.891068 0.055836
vn 0.0000 0.5878 -0.8090
vn 0.0000 0.9511 0.3090
vn 0.0000 -0.0000 1.0000
vn -1.0000 -0.0000 -0.0000
vn 0.0000 -0.9511 0.3090
vn 0.0000 -0.5878 -0.8090
vn 1.0000 0.0000 0.0000
usemtl None
s off
f 2/1/1 3/2/1 1/3/1
f 4/4/2 5/5/2 3/2/2
f 6/6/3 7/7/3 5/5/3
f 10/8/4 8/9/4 6/10/4
f 8/11/5 9/12/5 7/7/5
f 10/13/6 1/14/6 9/12/6
f 3/15/7 7/16/7 9/17/7
f 2/1/1 4/4/1 3/2/1
f 4/4/2 6/6/2 5/5/2
f 6/6/3 8/11/3 7/7/3
f 6/10/4 4/18/4 2/19/4
f 2/19/4 10/8/4 6/10/4
f 8/11/5 10/13/5 9/12/5
f 10/13/6 2/20/6 1/14/6
f 9/17/7 1/21/7 3/15/7
f 3/15/7 5/22/7 7/16/7
o colliderSub_Cube.006
v -3.753629 -1.337979 1.139606
v -4.129892 -0.777919 -0.609137
v -3.730117 -1.669079 0.048149
v -0.919630 -1.388571 1.293051
v -3.286198 -0.351320 1.670616
v -0.660939 -0.447591 1.796472
v -3.933764 0.821986 1.365202
v -3.867692 1.674035 -0.137332
v -2.893178 1.413528 1.213427
v -0.979890 1.458910 1.852671
v -1.919761 2.278977 0.570803
v 0.094814 1.869784 1.115033
v -0.353793 2.520493 0.560323
v 1.261320 0.036173 1.676242
v -3.643964 -1.317115 -1.149507
v -3.623451 -0.094916 -1.694507
v -1.039552 0.277853 -1.878143
v -0.928461 -1.343263 -1.361977
v 1.922014 -1.189720 -1.246971
v 1.153917 0.293256 -1.677016
v -2.645445 1.766424 -0.516013
v -3.779243 1.094951 -1.240861
v -1.788143 2.434269 -0.562829
v -2.358715 1.636659 -1.224957
v -0.249682 2.518584 -0.482858
v 0.114862 1.829307 -1.154789
v -1.069885 1.460740 -1.846822
v 3.254285 -1.611871 0.044735
v 4.246560 0.721687 1.427758
v 4.332215 -0.707549 1.379184
v 3.640926 -1.298296 0.990183
v 4.810810 -1.146992 -0.022291
v 4.973137 0.892651 0.184539
v 1.441022 1.041065 1.354662
v 0.587994 2.087050 -0.036252
v 1.463269 1.560503 0.628168
v 3.466200 1.563115 0.548830
v 4.309958 -0.430975 -1.497269
v 3.878780 -1.387281 -0.971152
v 4.757191 0.428943 -1.097812
v 1.498981 1.442400 -1.001794
v 3.914145 1.607972 -0.344223
v 3.983593 1.027600 -1.278182
vn -0.6089 -0.1325 0.7821
vn -0.9788 -0.1003 0.1785
vn 0.0298 -0.9874 0.1551
vn -0.0328 -0.9566 0.2895
vn -0.0593 -0.4582 0.8869
vn -0.3085 0.3023 0.9019
vn -0.6388 0.7667 0.0649
vn -0.3944 0.8067 0.4401
vn 0.0322 0.8525 0.5218
vn -0.8226 -0.5268 -0.2140
vn 0.0079 -0.9776 -0.2102
vn 0.0904 -0.2339 -0.9680
vn 0.0546 -0.2995 -0.9525
vn -0.0237 -0.3048 -0.9521
vn -0.0752 -0.4051 -0.9112
vn -0.5837 0.7235 -0.3685
vn -0.3324 0.4652 -0.8204
vn -0.2097 0.8588 -0.4675
vn -0.0607 0.9204 -0.3862
vn 0.1266 -0.2656 0.9557
vn 0.9296 -0.1097 0.3518
vn 0.3652 0.7519 0.5488
vn 0.3984 0.8481 0.3494
vn 0.0683 0.7502 0.6576
vn -0.0104 -0.2835 -0.9589
vn 0.8701 -0.2573 -0.4204
vn 0.6223 0.6967 -0.3567
vn -0.0108 0.5090 -0.8607
vn 0.0675 -0.4850 0.8719
vn 0.2371 0.2574 0.9368
vn 0.2863 0.4200 -0.8612
vn -0.9314 -0.3535 0.0872
vn 0.2845 -0.9580 -0.0369
vn -0.1506 0.9816 0.1170
vn 0.4397 0.8972 0.0422
vn 0.5419 0.8390 -0.0489
vn -0.0042 0.9974 -0.0724
vn 0.0670 -0.0182 0.9976
vn -0.9138 0.0346 -0.4046
vn -0.0744 0.0245 -0.9969
vn -0.0563 -0.4524 0.8901
vn -0.0016 0.2511 0.9680
vn -0.0127 0.9801 0.1982
vn -0.0888 0.6100 0.7874
vn 0.5752 0.7229 0.3828
vn -0.2308 0.7339 0.6388
vn -0.8241 -0.2191 -0.5224
vn 0.0648 -0.9268 -0.3698
vn -0.0314 -0.9583 -0.2839
vn -0.1192 0.3400 -0.9328
vn -0.3370 0.8925 -0.2997
vn -0.0292 0.6507 -0.7588
vn 0.5805 0.7047 -0.4079
vn 0.0911 0.0287 -0.9954
vn -0.0010 0.6978 -0.7163
vn 0.0894 -0.0285 0.9956
vn -0.0419 -0.5149 0.8563
vn 0.4523 -0.7952 0.4038
vn 0.2884 -0.9378 0.1931
vn 0.8608 0.0343 0.5078
vn 0.0220 0.8129 0.5819
vn 0.3115 0.9005 0.3034
vn 0.5212 0.7984 0.3015
vn 0.6541 -0.5691 -0.4984
vn -0.0620 -0.9658 -0.2517
vn 0.0703 -0.5050 -0.8603
vn 0.2878 0.8994 -0.3290
vn 0.6398 0.6732 -0.3707
vn 0.0838 0.8492 -0.5214
vn 0.0079 -0.9501 0.3119
vn 0.2593 0.6323 0.7300
vn 0.2526 0.6053 -0.7549
vn 0.9876 -0.0641 -0.1431
vn -0.6129 0.7893 0.0370
vn -0.0543 0.9985 -0.0073
vn -0.0722 0.9973 0.0139
vn -0.0492 -0.0377 0.9981
vn -0.9799 0.1334 -0.1485
vn 0.0097 0.3032 0.9529
vn 0.3797 0.2199 -0.8986
vn 0.0946 0.1685 -0.9812
vn -0.9945 0.1035 0.0149
usemtl Material.011
s off
f 15//8 17//8 11//8
f 17//9 12//9 11//9
f 14//10 13//10 41//10
f 13//11 14//11 11//11
f 14//12 16//12 15//12
f 20//13 19//13 15//13
f 31//14 19//14 21//14
f 19//15 18//15 17//15
f 22//16 21//16 20//16
f 12//17 25//17 13//17
f 13//18 28//18 38//18
f 27//19 30//19 29//19
f 28//20 27//20 29//20
f 27//21 28//21 26//21
f 26//22 28//22 25//22
f 31//23 33//23 34//23
f 34//24 37//24 26//24
f 18//25 31//25 32//25
f 36//26 37//26 34//26
f 41//27 24//27 16//27
f 42//28 43//28 40//28
f 46//29 22//29 44//29
f 43//30 52//30 39//30
f 47//31 44//31 39//31
f 30//32 48//32 29//32
f 50//33 42//33 48//33
f 43//34 50//34 53//34
f 51//35 53//35 30//35
f 41//36 16//36 14//36
f 24//37 44//37 20//37
f 51//38 30//38 37//38
f 11//39 12//39 13//39
f 49//40 42//40 38//40
f 23//41 33//41 21//41
f 45//42 35//42 23//42
f 51//43 45//43 46//43
f 47//44 51//44 46//44
f 16//45 24//45 20//45
f 12//46 32//46 26//46
f 37//47 27//47 26//47
f 15//48 11//48 14//48
f 15//49 19//49 17//49
f 31//50 18//50 19//50
f 21//51 22//51 23//51
f 22//52 45//52 23//52
f 20//53 21//53 19//53
f 12//54 26//54 25//54
f 28//55 29//55 38//55
f 13//56 25//56 28//56
f 32//57 34//57 26//57
f 31//58 34//58 32//58
f 33//59 36//59 34//59
f 35//60 45//60 36//60
f 37//61 30//61 27//61
f 33//62 35//62 36//62
f 40//63 39//63 24//63
f 41//64 40//64 24//64
f 42//65 40//65 41//65
f 38//66 42//66 41//66
f 43//67 39//67 40//67
f 47//68 46//68 44//68
f 46//69 45//69 22//69
f 39//70 52//70 47//70
f 49//71 48//71 42//71
f 38//72 29//72 49//72
f 48//73 49//73 29//73
f 51//74 36//74 45//74
f 43//75 53//75 52//75
f 52//76 53//76 51//76
f 13//77 38//77 41//77
f 20//78 44//78 22//78
f 36//79 51//79 37//79
f 42//80 50//80 43//80
f 31//81 21//81 33//81
f 23//82 35//82 33//82
f 47//83 52//83 51//83
f 15//84 16//84 20//84
f 12//85 18//85 32//85
f 24//86 39//86 44//86
f 53//87 50//87 48//87
f 30//88 53//88 48//88
f 12//89 17//89 18//89
o colliderCube.001_Cube.007
v 3.380143 -0.629546 -2.600624
v 3.919845 -0.816831 -2.413338
v 3.919845 -1.240362 -2.413338
v 3.380143 -1.427647 -2.600624
v 3.919845 -0.816831 -1.989807
v 3.380143 -0.629546 -1.802522
v 3.380143 -1.427647 -1.802522
v 3.919845 -1.240362 -1.989807
v -2.979845 -0.816831 -2.413338
v -2.440143 -0.629546 -2.600624
v -2.440143 -1.427647 -2.600624
v -2.979845 -1.240362 -2.413338
v -2.440143 -0.629546 -1.802522
v -2.979845 -0.816831 -1.989807
v -2.979845 -1.240362 -1.989807
v -2.440143 -1.427647 -1.802522
vn 0.0000 -1.0000 0.0000
vn 0.0000 0.0000 1.0000
vn 0.0000 1.0000 0.0000
vn -1.0000 0.0000 0.0000
vn 0.0000 0.0000 -1.0000
vn 0.3278 0.9447 0.0000
vn -0.3278 0.9447 0.0000
vn 0.3278 -0.9447 0.0000
vn -0.3278 -0.9447 0.0000
vn 0.3278 0.0000 -0.9447
vn 0.3278 0.0000 0.9447
vn -0.3278 0.0000 -0.9447
vn -0.3278 0.0000 0.9447
vn 1.0000 0.0000 0.0000
usemtl Material.012
s off
f 60//90 69//90 64//90
f 69//91 60//91 59//91
f 66//92 59//92 54//92
f 68//93 67//93 62//93
f 63//94 54//94 57//94
f 58//95 55//95 54//95
f 66//96 63//96 62//96
f 60//97 57//97 56//97
f 68//98 65//98 64//98
f 57//99 54//99 55//99
f 61//100 58//100 59//100
f 65//101 62//101 63//101
f 69//102 66//102 67//102
f 56//103 55//103 58//103
f 60//90 64//90 57//90
f 69//91 59//91 66//91
f 66//92 54//92 63//92
f 68//93 62//93 65//93
f 63//94 57//94 64//94
f 58//95 54//95 59//95
f 66//96 62//96 67//96
f 60//97 56//97 61//97
f 68//98 64//98 69//98
f 57//99 55//99 56//99
f 61//100 59//100 60//100
f 65//101 63//101 64//101
f 69//102 67//102 68//102
f 56//103 58//103 61//103
o colliderCube_Cube.008
v 3.509264 -0.614610 1.787013
v 4.048966 -0.801895 1.974299
v 4.048966 -1.255298 1.974299
v 3.509264 -1.442583 1.787013
v 4.048966 -0.801895 2.427701
v 3.509264 -0.614610 2.614986
v 3.509264 -1.442583 2.614986
v 4.048966 -1.255298 2.427701
v -3.108967 -0.801895 1.974299
v -2.569264 -0.614610 1.787013
v -2.569264 -1.442583 1.787013
v -3.108967 -1.255298 1.974299
v -2.569264 -0.614610 2.614986
v -3.108967 -0.801895 2.427701
v -3.108967 -1.255298 2.427701
v -2.569264 -1.442583 2.614986
vn 0.0000 -1.0000 0.0000
vn 0.0000 0.0000 1.0000
vn 0.0000 1.0000 0.0000
vn -1.0000 0.0000 0.0000
vn 0.0000 0.0000 -1.0000
vn 0.3278 0.9447 0.0000
vn -0.3278 0.9447 0.0000
vn 0.3278 -0.9447 0.0000
vn -0.3278 -0.9447 0.0000
vn 0.3278 0.0000 -0.9447
vn 0.3278 0.0000 0.9447
vn -0.3278 0.0000 -0.9447
vn -0.3278 0.0000 0.9447
vn 1.0000 0.0000 0.0000
usemtl Material.013
s off
f 76//104 85//104 80//104
f 85//105 76//105 75//105
f 82//106 75//106 70//106
f 84//107 83//107 78//107
f 79//108 70//108 73//108
f 74//109 71//109 70//109
f 82//110 79//110 78//110
f 76//111 73//111 72//111
f 84//112 81//112 80//112
f 73//113 70//113 71//113
f 77//114 74//114 75//114
f 81//115 78//115 79//115
f 85//116 82//116 83//116
f 72//117 71//117 74//117
f 76//104 80//104 73//104
f 85//105 75//105 82//105
f 82//106 70//106 79//106
f 84//107 78//107 81//107
f 79//108 73//108 80//108
f 74//109 70//109 75//109
f 82//110 78//110 83//110
f 76//111 72//111 77//111
f 84//112 80//112 85//112
f 73//113 71//113 72//113
f 77//114 75//114 76//114
f 81//115 79//115 80//115
f 85//116 83//116 84//116
f 72//117 74//117 77//117
